# xmcd
#
# Track frame offsets:
#	150
#	3304
#	13756
#	23455
#	30442
#	46164
#	64983
#	71512
#	82743
#	91421
#	108067
#	118374
#	135758
#	140942
#	144083
#	150576
#	152418
#	157346
#	162637
#	169621
#	182660
#	192304
#	201500
#	206294
#	214547
#	222996
#	226620
#	235448
#	241737
#	248733
#	254751
#	258488
#	260027
#	265221
#	281099
#	286174
#	292833
#	295809
#
# Disc length: 4197 seconds
#
# Revision: 1
# Processed by: cddbd v1.5.1PL2 Copyright (c) Steve Scherf et al.
# Submitted via: EasyCDDAExtractor 5.0.6
#
DISCID=1f106326
DTITLE=Del The Funky Homosapien - The Mixtape (By Zac Hendrix)
DYEAR=2006
DGENRE=Hip-Hop
TTITLE0=Intro
TTITLE1=I've Been Watching You_At The Helm
TTITLE2=In And Out_Games Begin
TTITLE3=Press Rewind
TTITLE4=Help Me Out_Sleepin' On My Couch_If You Must_Powers That Be
TTITLE5=Catch A Bad One (A-Plus Remix)_Dynasty_Catch A Bad One
TTITLE6=School Of Hardknocks (Zee's 1210 Remix)
TTITLE7=Dr. Bombay
TTITLE8=Positive Contact_Positive Contact (Mario C Remix)
TTITLE9=Funk 'Em (Insult2Injury Remix)
TTITLE10=What Is A Booty?_Pumpin' It Up
TTITLE11=What Do You Do In The Dark?_Wrongplace_Wrongplace (Casual Remix)
TTITLE12=Rock The House
TTITLE13=Food Fight
TTITLE14=The P-Jays
TTITLE15=Clint Eastwood
TTITLE16=The World's Gone Mad
TTITLE17=Good Times_Check It Ooout
TTITLE18=Things You Can Do
TTITLE19=Take A Little Trip_Stress The World
TTITLE20=Phoney Phranchise (Domino Remix)_Listen To The Melody
TTITLE21=Time's Up
TTITLE22=Three Emcees
TTITLE23=Sunny Meadowz
TTITLE24=Soopa Feen
TTITLE25=Memory Loss_ Dame Una Sola Noche Ara Amarte
TTITLE26=Repo Man_The Insurance Company
TTITLE27=Virus
TTITLE28=Eye Examination
TTITLE29=Undisputed Champs
TTITLE30=Mastermind (Interlude)_Algien
TTITLE31=A Little Something
TTITLE32=Thank Youse
TTITLE33=Love Is Worth
TTITLE34=Mr. Dobalina_Zilch
TTITLE35=Made In America (3 Mixes)
TTITLE36=Ahonetwo
TTITLE37=A Brand New Beginning (Unreleased Demo)
EXTD=
EXTT0=
EXTT1=
EXTT2=
EXTT3=
EXTT4=
EXTT5=
EXTT6=
EXTT7=
EXTT8=
EXTT9=
EXTT10=
EXTT11=
EXTT12=
EXTT13=
EXTT14=
EXTT15=
EXTT16=
EXTT17=
EXTT18=
EXTT19=
EXTT20=
EXTT21=
EXTT22=
EXTT23=
EXTT24=
EXTT25=
EXTT26=
EXTT27=
EXTT28=
EXTT29=
EXTT30=
EXTT31=
EXTT32=
EXTT33=
EXTT34=
EXTT35=
EXTT36=
EXTT37=
PLAYORDER=
